<?xml version="1.0" standalone="no"?>
<!DOCTYPE svg PUBLIC "-//W3C//DTD SVG 20010904//EN"
 "http://www.w3.org/TR/2001/REC-SVG-20010904/DTD/svg10.dtd">
<svg version="1.0" xmlns="http://www.w3.org/2000/svg"
 width="512.000000pt" height="512.000000pt" viewBox="0 0 512.000000 512.000000"
 preserveAspectRatio="xMidYMid meet">
<metadata>
Created by potrace 1.14, written by Peter Selinger 2001-2017
</metadata>
<g transform="translate(0.000000,512.000000) scale(0.100000,-0.100000)"
fill="#000000" stroke="none">
<path d="M0 2560 l0 -2560 2560 0 2560 0 0 2560 0 2560 -2560 0 -2560 0 0
-2560z m1569 787 c8 -11 6 -34 -9 -92 -11 -43 -20 -91 -20 -107 0 -38 -5 -40
265 94 l220 110 74 -7 c257 -24 411 -147 457 -363 11 -52 14 -172 14 -545 0
-398 2 -483 15 -506 13 -26 39 -42 90 -55 126 -32 135 -36 135 -67 l0 -29
-362 2 -363 3 -3 26 c-3 25 1 27 80 48 117 30 146 47 159 90 7 24 9 191 7 496
-4 517 -4 513 -79 599 -101 115 -317 147 -476 70 -61 -29 -141 -112 -172 -180
-13 -26 -27 -72 -32 -103 -13 -80 -12 -850 2 -888 12 -37 47 -56 157 -84 79
-21 83 -23 80 -48 l-3 -26 -362 -3 -363 -2 0 29 c0 31 2 33 147 70 22 6 52 20
65 30 l23 19 3 544 c2 371 0 555 -8 580 -13 45 -34 57 -147 89 -65 17 -83 26
-83 40 0 12 10 21 28 25 154 34 413 122 427 145 9 13 21 11 34 -4z m2202 -38
c46 -17 105 -34 130 -36 l46 -5 6 -176 c4 -98 9 -192 13 -209 6 -33 6 -33 -33
-33 l-39 0 -17 71 c-20 83 -65 177 -111 234 -123 150 -382 134 -469 -28 -31
-59 -31 -184 0 -243 42 -80 96 -114 328 -208 308 -125 403 -219 421 -414 17
-188 -79 -362 -247 -446 -97 -48 -160 -59 -314 -54 -113 4 -143 9 -225 37 -52
18 -124 47 -160 64 l-65 32 -6 200 c-4 110 -8 207 -10 215 -3 11 7 16 42 18
l45 3 18 -78 c62 -268 218 -414 441 -412 189 2 307 157 266 350 -23 107 -93
169 -281 246 -394 163 -490 256 -490 474 0 141 57 250 174 333 76 54 121 74
211 92 107 21 224 11 326 -27z"/>
</g>
</svg>
