<?xml version="1.0" standalone="no"?>
<!DOCTYPE svg PUBLIC "-//W3C//DTD SVG 20010904//EN"
 "http://www.w3.org/TR/2001/REC-SVG-20010904/DTD/svg10.dtd">
<svg version="1.0" xmlns="http://www.w3.org/2000/svg"
 width="512.000000pt" height="512.000000pt" viewBox="0 0 512.000000 512.000000"
 preserveAspectRatio="xMidYMid meet">
<metadata>
Created by potrace 1.14, written by Peter Selinger 2001-2017
</metadata>
<g transform="translate(0.000000,512.000000) scale(0.100000,-0.100000)"
fill="#000000" stroke="none">
<path d="M377 5105 c-173 -47 -316 -193 -362 -366 -22 -81 -22 -4277 0 -4358
46 -176 190 -320 366 -366 81 -22 4277 -22 4358 0 176 46 320 190 366 366 22
81 22 4277 0 4358 -46 176 -190 320 -366 366 -77 21 -4287 21 -4362 0z m1081
-1673 c10 -7 10 -15 2 -38 -13 -33 -40 -165 -40 -195 0 -12 7 -19 18 -19 10 0
129 56 265 125 235 119 250 125 308 125 213 0 419 -109 492 -261 60 -123 60
-125 66 -740 6 -540 7 -568 25 -588 19 -21 87 -46 194 -71 48 -11 52 -14 52
-41 l0 -29 -405 0 -405 0 0 28 c0 27 3 29 93 52 105 26 134 39 162 70 19 21
20 38 23 504 2 310 -1 506 -8 551 -29 190 -135 291 -332 317 -214 29 -393 -64
-481 -249 l-32 -68 -3 -514 c-2 -459 -1 -516 13 -538 20 -30 55 -45 169 -74
83 -21 86 -22 86 -50 l0 -29 -405 0 -405 0 0 28 c0 27 3 29 93 52 105 26 134
39 162 70 20 22 20 36 20 639 0 572 -1 619 -18 644 -22 34 -52 49 -159 78
-127 34 -121 48 40 89 143 37 253 75 327 113 55 29 64 31 83 19z m2461 -46
c57 -22 110 -36 137 -36 l44 0 1 -152 c0 -84 6 -190 13 -236 l12 -83 -39 3
-39 3 -19 75 c-41 163 -134 301 -237 352 -40 19 -62 23 -147 23 -85 0 -107 -3
-145 -23 -63 -33 -105 -76 -130 -135 -19 -43 -22 -64 -18 -136 9 -171 71 -229
376 -350 242 -97 361 -174 420 -271 40 -67 51 -105 59 -197 19 -227 -119 -440
-332 -513 -202 -69 -455 -41 -708 78 l-79 37 -2 190 c-2 105 -7 211 -11 238
l-8 47 52 0 c43 0 51 -3 51 -18 0 -10 9 -54 21 -98 57 -219 182 -365 353 -410
28 -8 87 -14 132 -14 70 0 89 4 142 31 129 64 189 189 162 339 -26 148 -116
224 -384 327 -226 86 -388 199 -441 307 -74 152 -38 368 83 491 129 131 254
178 462 172 116 -4 132 -7 219 -41z"/>
</g>
</svg>
